<svg version="1.1" id="Layer_1" xmlns="http://www.w3.org/2000/svg" xmlns:xlink="http://www.w3.org/1999/xlink" x="0px" y="0px"
	 width="100%" viewBox="0 0 736 736" enable-background="new 0 0 736 736" xml:space="preserve">
<path fill="#ffffff" opacity="1.000000" stroke="none" 
	d="
M440.039093,584.943237 
	C423.356659,565.898926 410.889191,544.355652 397.671844,523.374207 
	C374.319763,486.304718 351.066956,449.166718 328.820312,411.414368 
	C327.658447,409.442627 326.114563,407.613495 325.967590,405.062531 
	C327.472565,403.218872 329.756073,403.190643 331.759399,402.609406 
	C364.426361,393.131592 394.208527,378.479736 418.194519,353.739899 
	C439.555603,331.707550 451.603485,305.470245 454.949097,274.747253 
	C460.080566,227.624512 432.292145,189.386292 388.962036,174.333786 
	C366.682434,166.594055 343.696503,163.394028 320.207397,163.975235 
	C251.061829,165.686142 187.500519,185.293579 129.990692,223.945496 
	C123.636223,228.216293 117.582802,232.935104 111.391640,237.448715 
	C109.244835,239.013794 107.005295,240.378448 104.509941,241.055267 
	C103.179276,239.497833 104.323128,238.700912 104.988701,237.830536 
	C150.529449,178.276535 208.460922,137.136200 281.832367,119.046356 
	C310.592224,111.955566 339.868103,108.578392 369.424774,109.900528 
	C408.001282,111.626137 444.156769,121.336266 474.332428,146.995850 
	C501.527161,170.120605 516.609558,199.714828 519.296875,235.343201 
	C522.535645,278.283752 508.694885,316.001770 482.930664,349.699829 
	C463.670258,374.891296 439.101898,394.254669 412.858978,411.638092 
	C412.442291,411.914124 412.018097,412.178802 411.602753,412.456757 
	C405.550812,416.506470 405.509552,416.534668 409.691864,422.739288 
	C438.277557,465.147278 465.860718,508.275696 497.214874,548.731140 
	C522.338806,581.147949 554.526733,603.212402 595.383667,611.062866 
	C607.778870,613.444519 620.363281,614.840332 632.858582,616.704102 
	C634.604126,616.964539 636.556213,616.640625 638.464355,618.942078 
	C632.980408,620.244141 627.910767,621.430542 622.849731,622.652649 
	C599.659119,628.252747 576.247986,632.267395 552.301331,632.294495 
	C508.350342,632.344238 470.351898,618.192200 440.039093,584.943237 
z"/>
<path fill="#ffffff" opacity="1.000000" stroke="none" 
	d="
M297.589172,206.605911 
	C298.958282,205.968063 299.951416,205.260193 301.568359,205.838547 
	C301.668671,213.685501 299.933411,221.466125 299.008209,229.298050 
	C296.628448,249.443222 293.904663,269.547791 291.314758,289.668121 
	C288.406494,312.261597 285.425690,334.846039 282.604401,357.450378 
	C280.091583,377.583069 277.790955,397.742157 275.327789,417.881165 
	C272.784821,438.673248 270.131134,459.451782 267.581573,480.243042 
	C266.407990,489.813660 265.292847,499.392822 264.295746,508.983154 
	C263.751221,514.220825 261.793549,518.341187 257.416687,521.658142 
	C233.979233,539.420227 212.394104,559.195374 193.195557,581.528931 
	C191.729187,583.234741 190.666565,586.133301 186.783417,584.987061 
	C187.509369,577.992554 188.166412,570.942688 188.984314,563.911499 
	C191.864822,539.149231 194.772034,514.389893 197.724762,489.636139 
	C199.908905,471.325623 202.228195,453.031250 204.399002,434.719177 
	C206.883301,413.762634 209.166000,392.781769 211.729584,371.835144 
	C214.071243,352.701752 216.771210,333.612305 219.123184,314.480103 
	C220.805664,300.793915 222.197159,287.071594 223.669464,273.360168 
	C224.148682,268.897217 224.215759,264.376556 224.922302,259.954346 
	C226.348526,251.028000 231.002853,244.092148 239.037186,239.842545 
	C258.781403,229.399216 277.790619,217.672592 297.589172,206.605911 
z"/>
</svg>